<?xml version="1.0" standalone="no"?>
<!DOCTYPE svg PUBLIC "-//W3C//DTD SVG 20010904//EN"
 "http://www.w3.org/TR/2001/REC-SVG-20010904/DTD/svg10.dtd">
<svg version="1.0" xmlns="http://www.w3.org/2000/svg"
 width="569.000000pt" height="569.000000pt" viewBox="0 0 569.000000 569.000000"
 preserveAspectRatio="xMidYMid meet">
<metadata>
Created by potrace 1.14, written by Peter Selinger 2001-2017
</metadata>
<g transform="translate(0.000000,569.000000) scale(0.100000,-0.100000)"
fill="#000000" stroke="none">
<path d="M2558 5616 c-6 -32 32 -146 78 -232 63 -120 99 -166 380 -486 86 -98
165 -204 192 -258 72 -147 85 -348 32 -515 -26 -84 -66 -166 -75 -157 -5 4 -5
2 -1 -5 8 -14 -68 -135 -79 -125 -5 4 -6 2 -2 -3 8 -15 -76 -126 -175 -230
-162 -172 -220 -241 -311 -375 -20 -30 -55 -73 -78 -95 l-41 -40 7 45 c11 69
64 199 152 375 150 299 194 441 197 630 1 114 -4 162 -26 221 -21 58 -35 45
-39 -36 -4 -84 -66 -243 -134 -347 -97 -148 -186 -237 -465 -467 -230 -191
-343 -294 -443 -405 -247 -273 -385 -532 -464 -873 -24 -103 -26 -132 -26
-323 -1 -190 2 -222 26 -335 14 -69 40 -164 57 -213 27 -79 42 -112 93 -212 8
-16 30 -64 47 -105 18 -41 41 -87 51 -102 11 -14 19 -29 19 -33 0 -4 12 -22
28 -41 15 -18 41 -49 57 -69 52 -64 78 -90 150 -150 87 -74 256 -184 329 -215
l55 -24 -117 -61 c-65 -33 -150 -82 -189 -108 -141 -94 -255 -228 -180 -213
12 3 54 7 92 11 386 33 793 143 1107 301 89 45 129 59 197 69 385 60 647 148
865 292 152 100 324 300 415 481 86 171 130 401 112 581 -31 302 -131 486
-405 751 -413 398 -479 476 -538 626 -19 49 -32 110 -40 180 -16 146 -1 256
68 497 66 235 85 337 85 471 0 226 -71 412 -224 590 -54 61 -163 155 -284 245
-40 29 -73 57 -73 62 0 5 -4 8 -8 7 -5 -2 -22 7 -38 19 -16 12 -51 38 -79 59
-158 117 -335 297 -335 339 0 25 -18 25 -22 1z"/>
</g>
</svg>
